# xmcd
#
# Track frame offsets:
#	150
#	14832
#	29142
#	42777
#	58905
#	71587
#	90570
#	106030
#	119972
#	134802
#	158497
#	176955
#	196747
#	208660
#	220810
#
# Disc length: 3410 seconds
#
# Revision: 3
# Processed by: cddbd v1.5.2PL0 Copyright (c) Steve Scherf et al.
# Submitted via: audiograbber 1.83.01
#
DISCID=e80d500f
DTITLE=Various Artist - Tales Of God, Mom and Country - 30 Homespun and Heartfelt 
DTITLE=Narrative Recordings  [CD1)
DYEAR=1900
DGENRE=Oldies
TTITLE0=T. Texas Tyler - Deck Of Cards
TTITLE1=Tex Ritter - I Dreamed Of A Hillbilly Heaven
TTITLE2=Jimmy Dean - Big Bad John
TTITLE3=Lorne Greene - Ringo
TTITLE4=Walter Brennan - Old Rivers
TTITLE5=Tom T. Hall - Old Dogs, Children And Watermelon Wine
TTITLE6=C.W. McCall - Roses For Mama
TTITLE7=Stan Kenton - Mama Sang A Song
TTITLE8=Shirley Caesar - No Charge
TTITLE9=Jackie Gleason - To A Sleeping Beauty (Monologue)
TTITLE10=Arthur Godfrey - What Is A Boy
TTITLE11=Victor Lundberg - An Open Letter To My Teenage Son
TTITLE12=Johnny Cash - What Is Truth
TTITLE13=Shangri-Las - Past, Present and Future
TTITLE14=Paul Harvey - Indestructible Wall
EXTD=
EXTT0=
EXTT1=
EXTT2=
EXTT3=
EXTT4=
EXTT5=
EXTT6=
EXTT7=
EXTT8=
EXTT9=
EXTT10=
EXTT11=
EXTT12=
EXTT13=
EXTT14=
PLAYORDER=
